<svg version="1.1" viewBox="0 0 60 60" xmlns="http://www.w3.org/2000/svg">
 <style>
 @media (prefers-color-scheme: dark) {
  .bg { fill: #064940 }
 }
 </style>
 <circle class="bg" cx="30" cy="30" r="30" fill="#3cab3d" stroke-width="3.7795"/>
 <path d="m24.142 5.7354c-5.5242 1.556-10.273 4.5199-13.787 9.306-3.8891 5.2981-5.413 11.285-4.9191 17.98 0.18709-0.2502 0.28989-0.37606 0.38098-0.51001 0.54501-0.807 1.078-1.623 1.633-2.422 0.84397-1.215 1.809-2.316 3.056-3.13 2.545-1.664 5.3881-2.121 8.3399-1.946 2.642 0.15685 5.274 0.502 7.9158 0.67998 2.832 0.19011 5.531-0.30992 8.0349-1.764 3.653-2.12 5.7199-6.0552 5.2229-10.2-0.70401-5.859-5.8749-8.245-10.29-7.4502-3.03 0.54701-5.6069 3.531-5.9259 6.627-0.24113 2.345 0.68202 4.1771 2.606 4.9678 2.283 0.94001 4.5558 0.82704 6.7268-0.36208 1.88-1.031 2.756-2.93 2.28-4.7562-0.56999-2.188-2.673-3.461-4.684-2.836-1.082 0.336-1.611 1.169-1.376 2.287 0.12094 0.58001 0.32013 1.154 0.55903 1.697 0.24983 0.567 0.59097 1.094 0.92198 1.693-0.82299-0.21392-1.485-0.60801-2.061-1.148-1.486-1.393-1.656-3.556-0.40702-5.0389 1.189-1.411 3.645-2.128 5.4002-1.576 1.251 0.395 2.14 1.233 2.766 2.363 1.503 2.712 1.334 6.9362-2.195 9.1121-2.334 1.44-4.814 1.758-7.4381 1.057-4.4682-1.195-8.1419-6.0801-4.845-11.769 0.6-1.036 1.41-1.947 2.084-2.862m15.701 1.123c0.16819 0.19389 0.44901 0.52702 0.73701 0.85202 2.622 2.962 3.165 6.37 2.137 10.116-0.609 2.22-1.722 4.196-2.927 6.1281-1.103 1.768-2.248 3.51-3.29 5.314-1.288 2.229-2.142 4.6148-2.227 7.2329-0.12321 3.767 1.1 6.8878 4.2701 9.0739 3.7829 2.607 8.7798 2.06 11.716-1.282 3.9999-4.5551 1.684-9.507-1.507-11.405-1.746-1.038-3.556-1.23-5.3499-0.11112-2.334 1.453-3.504 4.512-2.746 7.1679 0.49202 1.72 1.551 2.857 3.37 3.162 2.22 0.37304 4.1639-1.012 4.3929-3.14 0.09487-0.888-0.2759-1.667-1.119-1.911-0.74801-0.21694-1.56-0.25587-2.346-0.28384-0.48-0.0189-0.96699 0.13606-1.499 0.21997 0.96499-1.277 2.874-1.917 4.388-1.512 1.433 0.38302 2.302 1.508 2.516 3.257 0.31786 2.606-1.152 4.82-3.561 5.2479-2.666 0.47403-4.9829-0.30992-6.8871-2.227-1.747-1.76-2.028-3.953-1.628-6.2959 0.91801-5.3711 7.1811-8.1369 11.71-5.17 2.2 1.442 3.3 3.61 3.885 6.1051l0.1988 0.85296c4.2021-12.241-1.804-26.528-14.234-31.392m7.4328 41.926c-0.90799 0.14287-1.807 0.34091-2.716 0.41201-0.92799 0.07294-1.87 0.08391-2.797 0.01134-3.272-0.26268-6.113-1.4678-8.1279-4.1817-0.95301-1.282-1.805-2.655-2.57-4.06-1.005-1.844-1.844-3.778-2.818-5.6398-1.369-2.615-3.253-4.746-5.876-6.1682-4.1711-2.262-8.8539-1.748-12.247 1.375-2.667 2.457-3.56 5.9928-2.327 9.2118 1.598 4.1681 5.3851 6.0881 9.3521 4.732 1.094-0.37304 2.068-0.95097 2.853-1.82 1.288-1.425 1.672-3.053 1.058-4.8998-1.008-3.035-4.1851-4.9999-7.1169-4.492-2.826 0.48797-3.521 4.2149-2.342 5.8802 1.042 1.472 2.635 1.53 3.664 0.04989 0.39999-0.57502 0.61799-1.28 0.90198-1.934 0.08202-0.18709 0.10318-0.40199 0.16592-0.66701 0.67298 0.73104 1.013 1.5 0.877 2.434-0.21014 1.444-1.37 2.628-2.889 2.961-2.552 0.56001-5.0302-1.146-5.3681-3.733-0.17197-1.317 0.18595-2.547 0.79397-3.707 1.335-2.55 3.857-3.93 6.559-3.531 1.666 0.24605 3.155 0.96 4.413 2.087 2.37 2.124 3.462 4.7569 2.64 7.923-0.71199 2.747-2.557 4.5789-5.147 5.6459-2.399 0.98801-4.752 1.039-7.019-0.39999-0.03024-0.0189-0.08693-3e-3 -0.14513-3e-3 8.3089 10.784 25.89 12.692 36.228 2.515m-16.877 8.019c-14.42 0.043087-26.318-11.88-26.373-26.415-0.055181-14.818 11.743-26.556 25.976-26.75 14.629-0.19918 26.65 11.659 26.718 26.4 0.06803 14.788-11.696 26.719-26.321 26.765" fill="#fff" stroke-width="3.7795"/>
</svg>
