<svg xmlns="http://www.w3.org/2000/svg" width="779" height="90" viewBox="0 0 779 90">
    <g fill="none" fill-rule="evenodd">
        <g opacity=".262">
            <path fill="#30A231" d="M12.246 28.907c-.052 0-.105-.006-.158-.02-.332-.088-.53-.43-.443-.763 1.698-6.516 1.8-14.433 1.8-14.512.004-.345.293-.614.627-.619.343.004.618.287.614.632 0 .08-.103 8.153-1.84 14.816-.073.28-.325.466-.6.466" transform="translate(-1 -3) rotate(15 216.8 1668.512)"/>
            <path fill="#43BC44" d="M27.83 12.506c.105-2.271-1.983-4.215-4.664-4.34-.142-.008-.283-.008-.423-.005 0 0-1.154.096-2.686.36.323-.73.538-1.264.617-1.427.05-.1.375-.896.451-1.192.675-2.616-.55-5.2-2.736-5.771-1.6-.419-3.272.36-4.317 1.833C13.035.484 11.367-.302 9.764.108c-2.188.56-3.427 3.137-2.766 5.757.035.139.076.275.12.409 0 0 .293.851.791 2.053-1.496-.33-2.622-.479-2.622-.479-.14-.01-.28-.016-.423-.016C2.18 7.83.002 9.671 0 11.944c-.001 1.666 1.165 3.1 2.844 3.75-1.163 1.382-1.502 3.204-.707 4.665 1.087 1.993 3.875 2.555 6.228 1.255.267-.148.954-.66 1.037-.733.387-.33 2.832-2.287 4.453-4.514 1.514 2.259 3.796 4.272 4.16 4.614.08.077.742.622 1.001.782 2.29 1.412 5.1.984 6.28-.955.864-1.42.611-3.257-.485-4.693 1.708-.568 2.941-1.946 3.018-3.61" transform="translate(-1 -3) rotate(15 216.8 1668.512)"/>
        </g>
        <g opacity=".262">
            <path fill="#30A231" d="M12.246 28.907c-.052 0-.105-.006-.158-.02-.332-.088-.53-.43-.443-.763 1.698-6.516 1.8-14.433 1.8-14.512.004-.345.293-.614.627-.619.343.004.618.287.614.632 0 .08-.103 8.153-1.84 14.816-.073.28-.325.466-.6.466" transform="translate(-1 -3) rotate(15 303.8 2329.342)"/>
            <path fill="#43BC44" d="M27.83 12.506c.105-2.271-1.983-4.215-4.664-4.34-.142-.008-.283-.008-.423-.005 0 0-1.154.096-2.686.36.323-.73.538-1.264.617-1.427.05-.1.375-.896.451-1.192.675-2.616-.55-5.2-2.736-5.771-1.6-.419-3.272.36-4.317 1.833C13.035.484 11.367-.302 9.764.108c-2.188.56-3.427 3.137-2.766 5.757.035.139.076.275.12.409 0 0 .293.851.791 2.053-1.496-.33-2.622-.479-2.622-.479-.14-.01-.28-.016-.423-.016C2.18 7.83.002 9.671 0 11.944c-.001 1.666 1.165 3.1 2.844 3.75-1.163 1.382-1.502 3.204-.707 4.665 1.087 1.993 3.875 2.555 6.228 1.255.267-.148.954-.66 1.037-.733.387-.33 2.832-2.287 4.453-4.514 1.514 2.259 3.796 4.272 4.16 4.614.08.077.742.622 1.001.782 2.29 1.412 5.1.984 6.28-.955.864-1.42.611-3.257-.485-4.693 1.708-.568 2.941-1.946 3.018-3.61" transform="translate(-1 -3) rotate(15 303.8 2329.342)"/>
        </g>
        <g opacity=".235">
            <path fill="#30A231" d="M9.622 22.927c-.041 0-.083-.006-.125-.017-.26-.07-.416-.34-.347-.605 1.334-5.167 1.413-11.447 1.414-11.51.003-.273.23-.486.493-.49.269.003.485.227.482.501 0 .064-.081 6.466-1.446 11.75-.057.223-.255.37-.471.37" transform="translate(-1 -3) rotate(-14 164.57 -1121.423)"/>
            <path fill="#43BC44" d="M21.866 9.918c.083-1.8-1.558-3.342-3.664-3.442-.112-.006-.223-.006-.333-.003 0 0-.906.075-2.11.285.254-.58.423-1.002.485-1.132.04-.078.294-.71.355-.945.53-2.075-.433-4.124-2.15-4.577-1.258-.332-2.571.285-3.392 1.454C10.242.384 8.93-.24 7.672.086 5.952.53 4.979 2.574 5.499 4.65c.027.11.06.218.094.325 0 0 .23.675.621 1.628-1.175-.262-2.06-.38-2.06-.38v.001c-.11-.008-.22-.013-.333-.013C1.713 6.209.001 7.67.001 9.472c-.002 1.322.914 2.46 2.233 2.975-.913 1.096-1.18 2.541-.555 3.7.854 1.58 3.045 2.026 4.893.995.21-.117.75-.523.815-.581.304-.262 2.225-1.814 3.499-3.58 1.19 1.791 2.982 3.388 3.269 3.659.062.061.583.493.786.62 1.799 1.12 4.008.78 4.935-.757.678-1.127.48-2.583-.382-3.722 1.342-.451 2.311-1.543 2.372-2.863" transform="translate(-1 -3) rotate(-14 164.57 -1121.423)"/>
        </g>
        <g opacity=".235">
            <path fill="#30A231" d="M9.622 22.927c-.041 0-.083-.006-.125-.017-.26-.07-.416-.34-.347-.605 1.334-5.167 1.413-11.447 1.414-11.51.003-.273.23-.486.493-.49.269.003.485.227.482.501 0 .064-.081 6.466-1.446 11.75-.057.223-.255.37-.471.37" transform="translate(-1 -3) rotate(-14 99.612 -342.397)"/>
            <path fill="#43BC44" d="M21.866 9.918c.083-1.8-1.558-3.342-3.664-3.442-.112-.006-.223-.006-.333-.003 0 0-.906.075-2.11.285.254-.58.423-1.002.485-1.132.04-.078.294-.71.355-.945.53-2.075-.433-4.124-2.15-4.577-1.258-.332-2.571.285-3.392 1.454C10.242.384 8.93-.24 7.672.086 5.952.53 4.979 2.574 5.499 4.65c.027.11.06.218.094.325 0 0 .23.675.621 1.628-1.175-.262-2.06-.38-2.06-.38v.001c-.11-.008-.22-.013-.333-.013C1.713 6.209.001 7.67.001 9.472c-.002 1.322.914 2.46 2.233 2.975-.913 1.096-1.18 2.541-.555 3.7.854 1.58 3.045 2.026 4.893.995.21-.117.75-.523.815-.581.304-.262 2.225-1.814 3.499-3.58 1.19 1.791 2.982 3.388 3.269 3.659.062.061.583.493.786.62 1.799 1.12 4.008.78 4.935-.757.678-1.127.48-2.583-.382-3.722 1.342-.451 2.311-1.543 2.372-2.863" transform="translate(-1 -3) rotate(-14 99.612 -342.397)"/>
        </g>
        <g opacity=".235">
            <path fill="#30A231" d="M9.622 22.927c-.041 0-.083-.006-.125-.017-.26-.07-.416-.34-.347-.605 1.334-5.167 1.413-11.447 1.414-11.51.003-.273.23-.486.493-.49.269.003.485.227.482.501 0 .064-.081 6.466-1.446 11.75-.057.223-.255.37-.471.37" transform="translate(-1 -3) rotate(-14 434.612 -3070.753)"/>
            <path fill="#43BC44" d="M21.866 9.918c.083-1.8-1.558-3.342-3.664-3.442-.112-.006-.223-.006-.333-.003 0 0-.906.075-2.11.285.254-.58.423-1.002.485-1.132.04-.078.294-.71.355-.945.53-2.075-.433-4.124-2.15-4.577-1.258-.332-2.571.285-3.392 1.454C10.242.384 8.93-.24 7.672.086 5.952.53 4.979 2.574 5.499 4.65c.027.11.06.218.094.325 0 0 .23.675.621 1.628-1.175-.262-2.06-.38-2.06-.38v.001c-.11-.008-.22-.013-.333-.013C1.713 6.209.001 7.67.001 9.472c-.002 1.322.914 2.46 2.233 2.975-.913 1.096-1.18 2.541-.555 3.7.854 1.58 3.045 2.026 4.893.995.21-.117.75-.523.815-.581.304-.262 2.225-1.814 3.499-3.58 1.19 1.791 2.982 3.388 3.269 3.659.062.061.583.493.786.62 1.799 1.12 4.008.78 4.935-.757.678-1.127.48-2.583-.382-3.722 1.342-.451 2.311-1.543 2.372-2.863" transform="translate(-1 -3) rotate(-14 434.612 -3070.753)"/>
        </g>
        <g opacity=".23">
            <path fill="#30A231" d="M6.997 16.946c-.03 0-.06-.004-.09-.012-.19-.052-.302-.252-.253-.448.97-3.819 1.028-8.46 1.029-8.507.002-.202.167-.36.358-.362.196.002.353.168.351.37 0 .047-.06 4.78-1.052 8.685-.041.165-.185.274-.343.274" transform="translate(-1 -3) rotate(4 -871.392 2787.732)"/>
            <path fill="#43BC44" d="M15.903 7.331c.06-1.331-1.133-2.47-2.665-2.544-.082-.005-.162-.005-.242-.003 0 0-.66.056-1.535.211.184-.428.307-.74.353-.837.029-.058.214-.525.258-.698.385-1.534-.315-3.048-1.564-3.383-.915-.246-1.87.21-2.467 1.074C7.448.284 6.496-.177 5.58.063 4.329.392 3.62 1.903 3.999 3.438c.02.082.043.161.069.24 0 0 .167.499.452 1.203-.855-.193-1.5-.28-1.5-.28h.001c-.08-.006-.16-.01-.242-.01C1.245 4.59.001 5.67 0 7.001 0 7.979.666 8.82 1.625 9.2c-.664.81-.858 1.878-.404 2.734.621 1.169 2.214 1.498 3.559.736.152-.086.545-.386.593-.43.22-.193 1.618-1.34 2.544-2.645.866 1.323 2.169 2.504 2.377 2.704.046.046.424.365.572.458 1.308.828 2.915.577 3.589-.56.494-.832.349-1.908-.277-2.75.976-.334 1.68-1.14 1.725-2.116" transform="translate(-1 -3) rotate(4 -871.392 2787.732)"/>
        </g>
        <g opacity=".23">
            <path fill="#30A231" d="M6.997 16.946c-.03 0-.06-.004-.09-.012-.19-.052-.302-.252-.253-.448.97-3.819 1.028-8.46 1.029-8.507.002-.202.167-.36.358-.362.196.002.353.168.351.37 0 .047-.06 4.78-1.052 8.685-.041.165-.185.274-.343.274" transform="translate(-1 -3) rotate(4 -1072.91 65.375)"/>
            <path fill="#43BC44" d="M15.903 7.331c.06-1.331-1.133-2.47-2.665-2.544-.082-.005-.162-.005-.242-.003 0 0-.66.056-1.535.211.184-.428.307-.74.353-.837.029-.058.214-.525.258-.698.385-1.534-.315-3.048-1.564-3.383-.915-.246-1.87.21-2.467 1.074C7.448.284 6.496-.177 5.58.063 4.329.392 3.62 1.903 3.999 3.438c.02.082.043.161.069.24 0 0 .167.499.452 1.203-.855-.193-1.5-.28-1.5-.28h.001c-.08-.006-.16-.01-.242-.01C1.245 4.59.001 5.67 0 7.001 0 7.979.666 8.82 1.625 9.2c-.664.81-.858 1.878-.404 2.734.621 1.169 2.214 1.498 3.559.736.152-.086.545-.386.593-.43.22-.193 1.618-1.34 2.544-2.645.866 1.323 2.169 2.504 2.377 2.704.046.046.424.365.572.458 1.308.828 2.915.577 3.589-.56.494-.832.349-1.908-.277-2.75.976-.334 1.68-1.14 1.725-2.116" transform="translate(-1 -3) rotate(4 -1072.91 65.375)"/>
        </g>
        <g opacity=".23">
            <path fill="#30A231" d="M6.997 16.946c-.03 0-.06-.004-.09-.012-.19-.052-.302-.252-.253-.448.97-3.819 1.028-8.46 1.029-8.507.002-.202.167-.36.358-.362.196.002.353.168.351.37 0 .047-.06 4.78-1.052 8.685-.041.165-.185.274-.343.274" transform="translate(-1 -3) rotate(4 -737.91 9658.52)"/>
            <path fill="#43BC44" d="M15.903 7.331c.06-1.331-1.133-2.47-2.665-2.544-.082-.005-.162-.005-.242-.003 0 0-.66.056-1.535.211.184-.428.307-.74.353-.837.029-.058.214-.525.258-.698.385-1.534-.315-3.048-1.564-3.383-.915-.246-1.87.21-2.467 1.074C7.448.284 6.496-.177 5.58.063 4.329.392 3.62 1.903 3.999 3.438c.02.082.043.161.069.24 0 0 .167.499.452 1.203-.855-.193-1.5-.28-1.5-.28h.001c-.08-.006-.16-.01-.242-.01C1.245 4.59.001 5.67 0 7.001 0 7.979.666 8.82 1.625 9.2c-.664.81-.858 1.878-.404 2.734.621 1.169 2.214 1.498 3.559.736.152-.086.545-.386.593-.43.22-.193 1.618-1.34 2.544-2.645.866 1.323 2.169 2.504 2.377 2.704.046.046.424.365.572.458 1.308.828 2.915.577 3.589-.56.494-.832.349-1.908-.277-2.75.976-.334 1.68-1.14 1.725-2.116" transform="translate(-1 -3) rotate(4 -737.91 9658.52)"/>
        </g>
        <g opacity=".23">
            <path fill="#30A231" d="M6.997 16.946c-.03 0-.06-.004-.09-.012-.19-.052-.302-.252-.253-.448.97-3.819 1.028-8.46 1.029-8.507.002-.202.167-.36.358-.362.196.002.353.168.351.37 0 .047-.06 4.78-1.052 8.685-.041.165-.185.274-.343.274" transform="translate(-1 -3) rotate(-16 542.763 -1884.965)"/>
            <path fill="#43BC44" d="M15.903 7.331c.06-1.331-1.133-2.47-2.665-2.544-.082-.005-.162-.005-.242-.003 0 0-.66.056-1.535.211.184-.428.307-.74.353-.837.029-.058.214-.525.258-.698.385-1.534-.315-3.048-1.564-3.383-.915-.246-1.87.21-2.467 1.074C7.448.284 6.496-.177 5.58.063 4.329.392 3.62 1.903 3.999 3.438c.02.082.043.161.069.24 0 0 .167.499.452 1.203-.855-.193-1.5-.28-1.5-.28h.001c-.08-.006-.16-.01-.242-.01C1.245 4.59.001 5.67 0 7.001 0 7.979.666 8.82 1.625 9.2c-.664.81-.858 1.878-.404 2.734.621 1.169 2.214 1.498 3.559.736.152-.086.545-.386.593-.43.22-.193 1.618-1.34 2.544-2.645.866 1.323 2.169 2.504 2.377 2.704.046.046.424.365.572.458 1.308.828 2.915.577 3.589-.56.494-.832.349-1.908-.277-2.75.976-.334 1.68-1.14 1.725-2.116" transform="translate(-1 -3) rotate(-16 542.763 -1884.965)"/>
        </g>
    </g>
</svg>
