<svg xmlns="http://www.w3.org/2000/svg" xmlns:xlink="http://www.w3.org/1999/xlink" width="96" height="96" viewBox="0 0 96 96">
    <defs>
        <path id="prefix__a" d="M6 6L90.51 6 90.51 90.673 6 90.673z"/>
    </defs>
    <g fill="none" fill-rule="evenodd">
        <circle cx="48" cy="48" r="48" fill="#D4D4D4"/>
        <mask id="prefix__b" fill="#fff">
            <use xlink:href="#prefix__a"/>
        </mask>
        <path fill="#FFF" d="M38.261 9.339c-8.86 2.478-16.475 7.2-22.11 14.822-6.237 8.436-8.682 17.973-7.89 28.635.3-.398.466-.6.612-.814.874-1.285 1.728-2.584 2.618-3.857 1.354-1.935 2.901-3.688 4.901-4.985 4.083-2.649 8.642-3.378 13.375-3.098 4.238.25 8.459.8 12.696 1.082 4.543.302 8.871-.493 12.887-2.808 5.859-3.378 9.175-9.644 8.376-16.245-1.128-9.33-9.422-13.132-16.501-11.864-4.86.87-8.994 5.623-9.505 10.553-.388 3.735 1.094 6.652 4.178 7.912 3.662 1.496 7.308 1.318 10.79-.577 3.016-1.641 4.419-4.667 3.656-7.574-.914-3.485-4.287-5.512-7.513-4.517-1.735.535-2.583 1.862-2.206 3.643.195.924.513 1.837.896 2.702.402.904.949 1.743 1.48 2.697-1.32-.34-2.382-.968-3.306-1.828-2.383-2.218-2.656-5.663-.653-8.025 1.907-2.248 5.846-3.39 8.66-2.51 2.007.629 3.431 1.962 4.437 3.763 2.41 4.32 2.138 11.046-3.52 14.511-3.744 2.293-7.721 2.801-11.93 1.684-7.165-1.903-13.058-9.684-7.77-18.743.962-1.65 2.262-3.102 3.342-4.559m25.182 1.788c.27.31.72.84 1.181 1.358 4.205 4.717 5.076 10.144 3.428 16.11-.977 3.538-2.762 6.684-4.694 9.76-1.77 2.815-3.606 5.591-5.278 8.464-2.065 3.548-3.434 7.349-3.57 11.518-.197 6 1.764 10.97 6.849 14.45 6.065 4.153 14.08 3.283 18.788-2.04 6.414-7.255 2.702-15.14-2.416-18.163-2.801-1.654-5.704-1.958-8.582-.178-3.742 2.314-5.62 7.186-4.402 11.417.788 2.738 2.487 4.549 5.403 5.035 3.563.594 6.68-1.611 7.046-5.002.153-1.414-.442-2.653-1.794-3.042-1.2-.346-2.501-.408-3.763-.452-.77-.027-1.55.216-2.404.35 1.547-2.034 4.61-3.053 7.038-2.409 2.298.61 3.691 2.402 4.034 5.189.511 4.15-1.847 7.676-5.711 8.357-4.275.754-7.99-.493-11.044-3.547-2.803-2.803-3.253-6.296-2.611-10.027 1.472-8.554 11.516-12.96 18.778-8.234 3.531 2.297 5.296 5.748 6.232 9.723l.32 1.359c6.738-19.496-2.893-42.248-22.828-49.996m11.92 66.776c-1.456.228-2.898.543-4.355.656-1.488.115-3 .134-4.486.015-5.248-.418-9.804-2.337-13.036-6.66-1.528-2.042-2.895-4.229-4.123-6.467-1.61-2.935-2.956-6.016-4.518-8.98-2.195-4.166-5.218-7.56-9.423-9.824-6.69-3.603-14.201-2.784-19.642 2.19-4.278 3.912-5.71 9.544-3.731 14.67 2.562 6.64 8.635 9.696 14.997 7.537 1.754-.595 3.318-1.515 4.576-2.898 2.065-2.27 2.681-4.863 1.697-7.804-1.618-4.834-6.712-7.962-11.414-7.155-4.533.778-5.647 6.713-3.756 9.366 1.67 2.343 4.226 2.435 5.876.078.64-.915.992-2.038 1.447-3.079.13-.299.164-.64.266-1.062 1.08 1.164 1.624 2.388 1.406 3.876-.337 2.3-2.198 4.185-4.633 4.716-4.093.893-8.069-1.825-8.61-5.946-.275-2.098.3-4.056 1.274-5.903 2.141-4.061 6.185-6.26 10.519-5.625 2.673.392 5.06 1.53 7.077 3.325 3.801 3.382 5.554 7.576 4.236 12.619-1.144 4.375-4.102 7.29-8.255 8.99-3.848 1.574-7.621 1.655-11.258-.637-.05-.032-.139-.004-.232-.004 13.325 17.174 41.52 20.214 58.101 4.006m-27.067 12.77C25.17 90.743 6.088 71.753 6 48.605c-.089-23.6 18.832-42.292 41.66-42.601C71.12 5.686 90.4 24.57 90.51 48.048 90.618 71.6 71.752 90.6 48.296 90.673" mask="url(#prefix__b)"/>
    </g>
</svg>
