<svg xmlns="http://www.w3.org/2000/svg" xmlns:xlink="http://www.w3.org/1999/xlink" width="204" height="60" viewBox="0 0 204 60">
    <defs>
        <path id="prefix__a" d="M0 0L52.695 0 52.695 53.167 0 53.167z"/>
    </defs>
    <g fill="none" fill-rule="evenodd">
        <circle cx="30" cy="30" r="30" fill="#3CAB3D"/>
        <g>
            <path fill="#FFF" fill-rule="nonzero" d="M69.341 27.792l4.173-14.515h.062v14.515h3.176V5.423h-3.176l-4.172 14.546h-.063V5.423h-3.176v22.369h3.176zm13.576 0v-8.734h1.62c1.183 0 2.138-.204 2.864-.613.727-.408 1.308-.979 1.744-1.712.374-.607.617-1.257.732-1.948.114-.691.17-1.54.17-2.545 0-1.34-.103-2.403-.31-3.188-.208-.786-.582-1.472-1.121-2.058-.54-.587-1.142-.995-1.806-1.225-.665-.23-1.433-.346-2.305-.346h-4.764v22.369h3.176zm1.526-11.75h-1.526V8.439h1.65c.623 0 1.1.094 1.433.283.332.188.581.46.747.817.166.356.26.77.28 1.24.021.472.032.97.032 1.493 0 .565-.016 1.078-.047 1.54-.031.46-.13.848-.296 1.162-.166.335-.425.597-.778.785-.353.189-.851.283-1.495.283zm6.726 11.75c1.1 0 2.034-.31 2.802-.927.768-.618 1.401-1.461 1.9-2.53.29-.628.519-1.413.685-2.355.166-.943.29-1.896.373-2.86.083-.963.135-1.848.156-2.654.02-.806.031-1.377.031-1.712V8.25h3.114v19.54h3.176V5.424h-9.217v9.362c0 .691-.01 1.414-.03 2.168-.022.754-.063 1.487-.125 2.2-.063.711-.151 1.381-.265 2.01-.114.628-.265 1.162-.452 1.602-.228.503-.519.922-.871 1.257-.353.335-.841.523-1.464.565v3.205h.187zm16.97 0l.934-4.807h4.328l.934 4.807h3.176l-4.95-22.369h-2.647l-4.951 22.369h3.176zm4.67-7.823h-3.175l1.556-8.106h.063l1.557 8.106zm9.435 7.823v-9.96h3.924v9.96h3.176V5.423h-3.176v9.582h-3.924V5.423h-3.176v22.369h3.176zm11.397 3.455v-3.455h8.874v3.455h2.74v-6.283h-1.806V5.423h-9.123v6.535c0 .523-.005 1.073-.016 1.649-.01.576-.026 1.152-.047 1.728-.02.576-.046 1.136-.077 1.68-.032.545-.068 1.037-.11 1.477-.062.566-.145 1.147-.248 1.744-.104.597-.218 1.178-.343 1.744-.125.565-.27 1.104-.436 1.618-.166.513-.342.968-.53 1.366h-1.618v6.284h2.74zm6.632-6.283h-4.795c.187-.44.353-.937.498-1.492.145-.555.28-1.115.405-1.68.124-.566.233-1.116.327-1.65.093-.534.16-1.01.202-1.43.062-.502.114-1.084.156-1.743l.124-1.964c.042-.65.073-1.251.094-1.806.02-.555.031-.98.031-1.273V8.251h2.958v16.713zm11.646 3.016c.705 0 1.364-.141 1.977-.424.612-.283 1.147-.665 1.603-1.147.457-.481.815-1.031 1.075-1.649.26-.618.389-1.272.389-1.964v-1.382h-3.176v1.1c0 .44-.062.806-.187 1.1-.125.292-.28.523-.467.69-.208.168-.43.288-.67.362-.238.073-.461.11-.669.11-.727 0-1.23-.22-1.51-.66-.28-.44-.42-.984-.42-1.634V11.047c0-.754.13-1.378.389-1.87.26-.492.783-.738 1.572-.738.602 0 1.08.23 1.432.691.353.46.53 1.005.53 1.634v1.068h3.176v-1.257c0-.775-.13-1.492-.39-2.152-.259-.66-.617-1.23-1.074-1.712-.934-.984-2.148-1.477-3.643-1.477-.768 0-1.468.131-2.102.393-.633.262-1.178.623-1.634 1.084-.457.46-.81 1.005-1.059 1.634-.249.628-.374 1.309-.374 2.042v12.315c0 1.026.161 1.87.483 2.53.322.659.732 1.198 1.23 1.617.498.42 1.059.712 1.681.88.623.167 1.236.251 1.838.251zm10.804-.188v-9.96h1.775l2.803 9.96h3.238l-3.3-11.373c.165-.126.337-.299.513-.519.177-.22.327-.476.452-.77.083-.167.145-.36.186-.58.042-.22.083-.435.125-.645.041-.23.073-.481.093-.753l.28-2.608c.042-.335.094-.639.156-.911.063-.272.177-.503.343-.691.166-.189.342-.32.53-.393.186-.073.425-.11.715-.11V5.423c-.768 0-1.437.11-2.008.33-.57.22-1.054.581-1.448 1.084-.228.314-.415.649-.56 1.005-.146.356-.26.702-.343 1.037-.083.335-.14.633-.171.895s-.057.435-.078.519l-.311 2.67c-.042.293-.094.56-.156.801s-.166.456-.311.644c-.146.189-.333.335-.561.44-.228.105-.53.157-.903.157h-1.059V5.423h-3.176v22.369h3.176zm12.891 0l4.173-14.515h.062v14.515h3.176V5.423h-3.176l-4.172 14.546h-.063V5.423h-3.176v22.369h3.176zm15.694-23.217c1.39 0 2.423-.293 3.098-.88.675-.586 1.085-1.508 1.23-2.765h-2.647c-.02.126-.041.278-.062.456-.02.178-.088.356-.202.534-.115.178-.28.33-.499.456-.218.125-.524.188-.918.188-.395 0-.7-.063-.919-.188-.218-.126-.384-.278-.498-.456-.114-.178-.182-.356-.202-.534-.021-.178-.042-.33-.063-.456h-2.646c.145 1.257.555 2.179 1.23 2.765.674.587 1.707.88 3.098.88zm-2.118 23.217l4.173-14.515h.062v14.515h3.176V5.423h-3.176l-4.172 14.546h-.063V5.423h-3.176v22.369h3.176zM69.7 54.52c.544 0 1.05-.109 1.522-.326.47-.218.882-.512 1.233-.882.351-.37.627-.794.826-1.27.2-.474.3-.978.3-1.51V49.47h-2.443v.846c0 .338-.048.62-.144.846-.096.225-.216.403-.36.532-.159.128-.33.221-.514.277-.184.057-.356.085-.515.085-.56 0-.946-.17-1.162-.508-.215-.338-.323-.757-.323-1.256v-8.797c0-.58.1-1.06.3-1.438.199-.378.602-.568 1.209-.568.463 0 .83.178 1.102.532.271.354.407.773.407 1.257v.821h2.443v-.966c0-.596-.1-1.148-.3-1.656-.2-.507-.475-.946-.826-1.317-.718-.757-1.653-1.136-2.802-1.136-.591 0-1.13.101-1.617.302-.487.202-.906.48-1.258.834-.35.355-.622.773-.814 1.257-.192.483-.287 1.007-.287 1.57v9.474c0 .79.123 1.438.37 1.945.248.508.564.923.947 1.245.383.322.814.548 1.293.677.48.129.95.193 1.414.193zm13.15-.145V51.91h-4.838v-5.05h4.216v-2.32h-4.216v-5.052h4.838v-2.32H75.57v17.207h7.281zm5.653-17.86c1.07 0 1.864-.225 2.383-.676.52-.45.835-1.16.946-2.127h-2.036c-.016.097-.032.214-.047.35-.016.138-.068.275-.156.412-.088.137-.216.254-.383.35-.168.097-.404.145-.707.145-.303 0-.539-.048-.707-.145-.167-.096-.295-.213-.383-.35-.088-.137-.14-.274-.156-.411-.015-.137-.031-.254-.047-.35h-2.036c.111.966.427 1.675.946 2.126.519.451 1.313.677 2.383.677zm-1.629 17.86l3.21-11.165h.048v11.165h2.443V37.168h-2.443l-3.21 11.19h-.048v-11.19h-2.443v17.207h2.443zm20.264 0V37.168h-2.443V52.2h-2.467V37.168h-2.444V52.2h-2.467V37.168h-2.443v17.207h12.264zm4.742 0v-7.66h3.018v7.66h2.443V37.168h-2.443v7.371h-3.018v-7.37h-2.443v17.206h2.443zm15.545 0c1.597 0 2.759-.403 3.485-1.208.727-.806 1.09-1.966 1.09-3.48v-.967c0-.918-.136-1.643-.407-2.175-.272-.532-.695-.934-1.27-1.208.56-.323.974-.71 1.246-1.16.144-.242.251-.524.323-.846.072-.322.108-.717.108-1.184v-.629c0-.564-.076-1.107-.228-1.63-.151-.525-.403-.988-.754-1.39-.351-.403-.802-.725-1.353-.967-.551-.242-1.218-.363-2-.363h-3.57v17.207h3.33zm.216-10.15h-1.102v-4.737h1.006c.814 0 1.377.194 1.689.58.31.387.467.967.467 1.74 0 .79-.14 1.39-.42 1.8-.279.412-.826.617-1.64.617zm-.048 7.685h-1.054V46.4h1.078c.447 0 .806.052 1.078.157.271.105.487.27.646.495.144.226.24.5.288.822.048.322.072.701.072 1.136 0 .419-.016.806-.048 1.16-.032.354-.12.66-.264.918-.143.258-.355.46-.635.605-.279.145-.666.217-1.161.217zm13.605 2.465V43.911h.048l2.395 7.395h1.221l2.42-7.395h.047v10.464h2.443V37.168h-2.37l-3.115 9.111h-.047l-3.138-9.11h-2.348v17.206h2.444zm14.826.145c.495 0 .986-.089 1.473-.266.487-.177.93-.443 1.33-.797.383-.339.694-.766.933-1.281.24-.516.36-1.136.36-1.861v-9.087c0-.692-.12-1.305-.36-1.836-.239-.532-.55-.975-.934-1.33-.399-.338-.842-.596-1.329-.773-.487-.177-.978-.266-1.473-.266-.495 0-.986.089-1.473.266-.487.177-.922.435-1.305.773-.4.355-.72.798-.959 1.33-.24.531-.359 1.144-.359 1.836v9.087c0 .725.12 1.345.36 1.86.239.516.558.943.958 1.282.383.354.818.62 1.305.797.487.177.978.266 1.473.266zm0-2.465c-.447 0-.834-.141-1.162-.423-.327-.282-.49-.72-.49-1.317v-9.087c0-.596.163-1.035.49-1.317.328-.282.715-.423 1.162-.423.447 0 .834.141 1.162.423.327.282.49.721.49 1.317v9.087c0 .596-.163 1.035-.49 1.317-.328.282-.715.423-1.162.423zm10.132 2.465c.543 0 1.05-.109 1.52-.326.472-.218.883-.512 1.234-.882s.627-.794.827-1.27c.2-.474.299-.978.299-1.51V49.47h-2.443v.846c0 .338-.048.62-.144.846-.096.225-.215.403-.36.532-.159.128-.33.221-.514.277-.184.057-.355.085-.515.085-.559 0-.946-.17-1.162-.508-.215-.338-.323-.757-.323-1.256v-8.797c0-.58.1-1.06.3-1.438.199-.378.602-.568 1.209-.568.463 0 .83.178 1.102.532.271.354.407.773.407 1.257v.821h2.443v-.966c0-.596-.1-1.148-.3-1.656-.2-.507-.475-.946-.826-1.317-.718-.757-1.653-1.136-2.802-1.136-.591 0-1.13.101-1.617.302-.487.202-.906.48-1.257.834-.352.355-.623.773-.815 1.257-.191.483-.287 1.007-.287 1.57v9.474c0 .79.123 1.438.371 1.945.247.508.563.923.946 1.245.383.322.814.548 1.294.677.479.129.95.193 1.413.193zm8.311-.145v-7.66h1.365l2.156 7.66h2.491l-2.539-8.748c.128-.097.26-.23.395-.4.136-.168.252-.366.348-.591.064-.13.111-.278.143-.447l.096-.496c.032-.177.056-.37.072-.58l.216-2.005c.032-.258.071-.492.12-.701.047-.21.135-.387.263-.532.128-.145.263-.246.407-.302.144-.056.327-.085.55-.085v-2.32c-.59 0-1.105.085-1.544.254-.44.17-.81.447-1.114.834-.175.242-.32.5-.43.773-.113.274-.2.54-.264.798-.064.257-.108.487-.132.688-.024.202-.044.335-.06.4l-.24 2.053c-.031.226-.071.431-.12.617-.047.185-.127.35-.239.495-.112.145-.255.258-.431.338-.176.08-.407.121-.695.121h-.814v-7.37h-2.443v17.206h2.443zm10.802 0c1.597 0 2.759-.403 3.485-1.208.727-.806 1.09-1.966 1.09-3.48v-.967c0-.918-.135-1.643-.407-2.175-.271-.532-.694-.934-1.27-1.208.56-.323.975-.71 1.246-1.16.144-.242.252-.524.324-.846.071-.322.107-.717.107-1.184v-.629c0-.564-.076-1.107-.227-1.63-.152-.525-.403-.988-.755-1.39-.351-.403-.802-.725-1.353-.967-.55-.242-1.218-.363-2-.363h-3.569v17.207h3.33zm.216-10.15h-1.102v-4.737h1.006c.815 0 1.377.194 1.689.58.311.387.467.967.467 1.74 0 .79-.14 1.39-.42 1.8-.279.412-.826.617-1.64.617zm-.048 7.685h-1.054V46.4h1.078c.447 0 .806.052 1.078.157.271.105.487.27.647.495.143.226.24.5.287.822.048.322.072.701.072 1.136 0 .419-.016.806-.048 1.16-.032.354-.12.66-.263.918-.144.258-.356.46-.635.605-.28.145-.667.217-1.162.217zm13.988 2.465V51.91h-4.838v-5.05h4.215v-2.32h-4.215v-5.052h4.838v-2.32h-7.281v17.207h7.281z" transform="translate(4)"/>
            <g transform="translate(4) translate(0 3.625)">
                <mask id="prefix__b" fill="#fff">
                    <use xlink:href="#prefix__a"/>
                </mask>
                <path fill="#FFF" d="M20.116 2.097c-5.524 1.556-10.273 4.52-13.787 9.306C2.44 16.701.916 22.688 1.41 29.383c.187-.25.29-.376.381-.51.545-.807 1.078-1.623 1.633-2.422.844-1.215 1.809-2.316 3.056-3.13 2.545-1.664 5.388-2.121 8.34-1.946 2.642.157 5.274.502 7.916.68 2.832.19 5.531-.31 8.035-1.764 3.653-2.12 5.72-6.055 5.223-10.2-.704-5.859-5.875-8.245-10.29-7.45-3.03.547-5.607 3.531-5.926 6.627-.241 2.345.682 4.177 2.606 4.968 2.283.94 4.556.827 6.727-.362 1.88-1.031 2.756-2.93 2.28-4.756-.57-2.188-2.673-3.461-4.684-2.836-1.082.336-1.611 1.169-1.376 2.287.121.58.32 1.154.559 1.697.25.567.591 1.094.922 1.693-.823-.214-1.485-.608-2.061-1.148-1.486-1.393-1.656-3.556-.407-5.039 1.189-1.411 3.645-2.128 5.4-1.576 1.251.395 2.14 1.233 2.766 2.363 1.503 2.712 1.334 6.936-2.195 9.112-2.334 1.44-4.814 1.758-7.438 1.057-4.468-1.195-8.142-6.08-4.845-11.769.6-1.036 1.41-1.947 2.084-2.862M35.817 3.22c.168.194.449.527.737.852 2.622 2.962 3.165 6.37 2.137 10.116-.609 2.22-1.722 4.196-2.927 6.128-1.103 1.768-2.248 3.51-3.29 5.314-1.288 2.229-2.142 4.615-2.227 7.233-.123 3.767 1.1 6.888 4.27 9.074 3.783 2.607 8.78 2.06 11.716-1.282 4-4.555 1.684-9.507-1.507-11.405-1.746-1.038-3.556-1.23-5.35-.111-2.334 1.453-3.504 4.512-2.746 7.168.492 1.72 1.551 2.857 3.37 3.162 2.22.373 4.164-1.012 4.393-3.14.095-.888-.276-1.667-1.119-1.911-.748-.217-1.56-.256-2.346-.284-.48-.017-.967.136-1.499.22.965-1.277 2.874-1.917 4.388-1.512 1.433.383 2.302 1.508 2.516 3.257.318 2.606-1.152 4.82-3.561 5.248-2.666.474-4.983-.31-6.887-2.227-1.747-1.76-2.028-3.953-1.628-6.296.918-5.371 7.181-8.137 11.71-5.17 2.2 1.442 3.3 3.61 3.885 6.105l.199.853C54.253 22.371 48.247 8.084 35.817 3.22m7.433 41.928c-.908.143-1.807.341-2.716.412-.928.073-1.87.084-2.797.01-3.272-.263-6.113-1.468-8.128-4.182-.953-1.282-1.805-2.655-2.57-4.06-1.005-1.844-1.844-3.778-2.818-5.64-1.369-2.615-3.253-4.746-5.876-6.168-4.171-2.262-8.854-1.748-12.247 1.375-2.667 2.457-3.56 5.993-2.327 9.212 1.598 4.168 5.385 6.088 9.352 4.732 1.094-.373 2.068-.951 2.853-1.82 1.288-1.425 1.672-3.053 1.058-4.9-1.008-3.035-4.185-5-7.117-4.492-2.826.488-3.521 4.215-2.342 5.88 1.042 1.472 2.635 1.53 3.664.05.4-.575.618-1.28.902-1.934.082-.187.103-.402.166-.667.673.731 1.013 1.5.877 2.434-.21 1.444-1.37 2.628-2.889 2.961-2.552.56-5.03-1.146-5.368-3.733-.172-1.317.186-2.547.794-3.707 1.335-2.55 3.857-3.93 6.559-3.531 1.666.246 3.155.96 4.413 2.087 2.37 2.124 3.462 4.757 2.64 7.923-.712 2.747-2.557 4.579-5.147 5.646-2.399.988-4.752 1.039-7.019-.4-.032-.02-.087-.003-.145-.003 8.309 10.784 25.89 12.692 36.228 2.515m-16.877 8.019C11.953 53.21.055 41.287 0 26.752-.055 11.934 11.743.196 25.976.002c14.629-.199 26.65 11.659 26.718 26.4.068 14.788-11.696 26.719-26.321 26.765" mask="url(#prefix__b)"/>
            </g>
        </g>
    </g>
</svg>
