<svg xmlns="http://www.w3.org/2000/svg" width="30" height="30" viewBox="0 0 30 30">
    <defs>
        <linearGradient id="prefix__a" x1="66.67%" x2="41.67%" y1="16.67%" y2="75%">
            <stop offset="0%" stop-color="#37AEE2"/>
            <stop offset="100%" stop-color="#1E96C8"/>
        </linearGradient>
        <linearGradient id="prefix__b" x1="61.235%" x2="74.706%" y1="45.561%" y2="71.273%">
            <stop offset="0%" stop-color="#EFF7FC"/>
            <stop offset="100%" stop-color="#FFF"/>
        </linearGradient>
    </defs>
    <g fill="none">
        <circle cx="15" cy="15" r="15" fill="url(#prefix__a)"/>
        <path fill="#C8DAEA" d="M12.25 21.875c-.486 0-.403-.183-.571-.646l-1.429-4.703 11-6.526"/>
        <path fill="#A9C9DD" d="M12.25 21.875c.375 0 .54-.172.75-.375l2-1.945-2.495-1.504"/>
        <path fill="url(#prefix__b)" d="M12.505 18.051l6.045 4.466c.69.381 1.188.184 1.36-.64l2.46-11.595c.252-1.01-.385-1.469-1.045-1.169L6.876 14.684c-.986.396-.98.946-.18 1.191l3.709 1.158 8.584-5.416c.405-.246.777-.114.472.157"/>
    </g>
</svg>
